<mxfile host="app.diagrams.net" modified="2022-05-30T05:28:59.965Z" agent="5.0 (Windows NT 6.1; Win64; x64) AppleWebKit/537.36 (KHTML, like Gecko) Chrome/102.0.5005.62 Safari/537.36" etag="II9TRAlhqmsckGaW3ANj" version="18.1.3" type="github">
  <diagram name="Page-1" id="edf60f1a-56cd-e834-aa8a-f176f3a09ee4">
    <mxGraphModel dx="1422" dy="834" grid="1" gridSize="10" guides="1" tooltips="1" connect="1" arrows="1" fold="1" page="1" pageScale="1" pageWidth="1100" pageHeight="850" background="none" math="0" shadow="0">
      <root>
        <mxCell id="0" />
        <mxCell id="1" parent="0" />
        <mxCell id="Y6DcF0FGn6dgcacL7NEk-11" style="edgeStyle=orthogonalEdgeStyle;rounded=0;orthogonalLoop=1;jettySize=auto;html=1;exitX=0.5;exitY=1;exitDx=0;exitDy=0;entryX=0.5;entryY=0;entryDx=0;entryDy=0;fontSize=15;" edge="1" parent="1" source="Y6DcF0FGn6dgcacL7NEk-1" target="Y6DcF0FGn6dgcacL7NEk-3">
          <mxGeometry relative="1" as="geometry" />
        </mxCell>
        <mxCell id="Y6DcF0FGn6dgcacL7NEk-1" value="发动机字符集合" style="rounded=0;whiteSpace=wrap;html=1;fontSize=15;" vertex="1" parent="1">
          <mxGeometry x="320" y="130" width="120" height="60" as="geometry" />
        </mxCell>
        <mxCell id="Y6DcF0FGn6dgcacL7NEk-12" style="edgeStyle=orthogonalEdgeStyle;rounded=0;orthogonalLoop=1;jettySize=auto;html=1;exitX=0.5;exitY=1;exitDx=0;exitDy=0;fontSize=15;" edge="1" parent="1" source="Y6DcF0FGn6dgcacL7NEk-2" target="Y6DcF0FGn6dgcacL7NEk-3">
          <mxGeometry relative="1" as="geometry" />
        </mxCell>
        <mxCell id="Y6DcF0FGn6dgcacL7NEk-2" value="发动机字符生成规则&lt;br style=&quot;font-size: 15px;&quot;&gt;" style="rounded=0;whiteSpace=wrap;html=1;fontSize=15;" vertex="1" parent="1">
          <mxGeometry x="500" y="130" width="120" height="60" as="geometry" />
        </mxCell>
        <mxCell id="Y6DcF0FGn6dgcacL7NEk-14" style="edgeStyle=orthogonalEdgeStyle;rounded=0;orthogonalLoop=1;jettySize=auto;html=1;exitX=1;exitY=0.5;exitDx=0;exitDy=0;entryX=0;entryY=0.5;entryDx=0;entryDy=0;fontSize=15;" edge="1" parent="1" source="Y6DcF0FGn6dgcacL7NEk-3" target="Y6DcF0FGn6dgcacL7NEk-13">
          <mxGeometry relative="1" as="geometry" />
        </mxCell>
        <mxCell id="Y6DcF0FGn6dgcacL7NEk-3" value="发动机编号字符序列" style="rounded=0;whiteSpace=wrap;html=1;fontSize=15;" vertex="1" parent="1">
          <mxGeometry x="410" y="230" width="120" height="60" as="geometry" />
        </mxCell>
        <mxCell id="Y6DcF0FGn6dgcacL7NEk-16" style="edgeStyle=orthogonalEdgeStyle;rounded=0;orthogonalLoop=1;jettySize=auto;html=1;exitX=0.5;exitY=1;exitDx=0;exitDy=0;entryX=0;entryY=0.5;entryDx=0;entryDy=0;fontSize=15;" edge="1" parent="1" source="Y6DcF0FGn6dgcacL7NEk-4" target="Y6DcF0FGn6dgcacL7NEk-7">
          <mxGeometry relative="1" as="geometry" />
        </mxCell>
        <mxCell id="Y6DcF0FGn6dgcacL7NEk-4" value="发动机编号背景图集" style="rounded=0;whiteSpace=wrap;html=1;fontSize=15;" vertex="1" parent="1">
          <mxGeometry x="680" y="130" width="120" height="60" as="geometry" />
        </mxCell>
        <mxCell id="Y6DcF0FGn6dgcacL7NEk-15" style="edgeStyle=orthogonalEdgeStyle;rounded=0;orthogonalLoop=1;jettySize=auto;html=1;exitX=1;exitY=0.5;exitDx=0;exitDy=0;fontSize=15;" edge="1" parent="1" source="Y6DcF0FGn6dgcacL7NEk-5" target="Y6DcF0FGn6dgcacL7NEk-13">
          <mxGeometry relative="1" as="geometry" />
        </mxCell>
        <mxCell id="Y6DcF0FGn6dgcacL7NEk-5" value="发动机编号字体集" style="rounded=0;whiteSpace=wrap;html=1;fontSize=15;" vertex="1" parent="1">
          <mxGeometry x="410" y="330" width="120" height="60" as="geometry" />
        </mxCell>
        <mxCell id="Y6DcF0FGn6dgcacL7NEk-9" value="" style="swimlane;startSize=0;" vertex="1" parent="1">
          <mxGeometry x="180" y="65" width="810" height="390" as="geometry" />
        </mxCell>
        <mxCell id="Y6DcF0FGn6dgcacL7NEk-10" value="发动机编号图像生成流程" style="text;html=1;strokeColor=none;fillColor=none;align=center;verticalAlign=middle;whiteSpace=wrap;rounded=0;fontSize=18;" vertex="1" parent="Y6DcF0FGn6dgcacL7NEk-9">
          <mxGeometry x="20" y="15" width="230" height="30" as="geometry" />
        </mxCell>
        <mxCell id="Y6DcF0FGn6dgcacL7NEk-7" value="发动机编号生成图像" style="rounded=0;whiteSpace=wrap;html=1;fontSize=15;" vertex="1" parent="Y6DcF0FGn6dgcacL7NEk-9">
          <mxGeometry x="650" y="135" width="120" height="60" as="geometry" />
        </mxCell>
        <mxCell id="Y6DcF0FGn6dgcacL7NEk-17" style="edgeStyle=orthogonalEdgeStyle;rounded=0;orthogonalLoop=1;jettySize=auto;html=1;exitX=0.5;exitY=0;exitDx=0;exitDy=0;entryX=0;entryY=0.5;entryDx=0;entryDy=0;fontSize=15;" edge="1" parent="Y6DcF0FGn6dgcacL7NEk-9" source="Y6DcF0FGn6dgcacL7NEk-13" target="Y6DcF0FGn6dgcacL7NEk-7">
          <mxGeometry relative="1" as="geometry" />
        </mxCell>
        <mxCell id="Y6DcF0FGn6dgcacL7NEk-13" value="发动机编号图集" style="rounded=0;whiteSpace=wrap;html=1;fontSize=15;" vertex="1" parent="Y6DcF0FGn6dgcacL7NEk-9">
          <mxGeometry x="500" y="215" width="120" height="60" as="geometry" />
        </mxCell>
      </root>
    </mxGraphModel>
  </diagram>
</mxfile>
